<svg version="1.0" xmlns="http://www.w3.org/2000/svg" width="100" height="100" viewBox="0 0 980 1500"><path fill="#16610e" d="M657.7 456.6c-25.3 5.6-34.6 16.3-36.8 41.9-1.2 15-1.1 70 .1 86.6.6 7.3 1.7 19 2.5 25.9 3.5 30.2 3.9 36.6 2.7 47-3.1 26.6-15.4 43-40.7 54.5-8.9 4.1-11.5 6.5-11.5 10.5 0 1.7 2.1 8.3 4.6 14.7 11.5 29.2 13.8 54.1 7.4 79.4-8.7 33.9-34.4 64.3-71.5 84.5l-7 3.8 15.2-15.9c23.4-24.6 33.2-37.2 41.1-53 7.3-14.7 11.7-35.8 11.7-57 0-11.9-.3-15.1-2.4-21.5-3.1-9.9-5.4-14.3-10.4-19.7-14-15.2-33.4-13-63 7.3-11.1 7.6-16.4 11.5-53.2 39.4-19.4 14.6-43.6 31-58 39.2-38.4 21.8-76 33.7-112.2 35.5-10.7.5-12.3.8-12.8 2.5-1.7 5.1 1.9 9.1 15.4 17.1 13.1 7.8 26.9 20.6 34.8 32.4 3 4.6 8.1 14.1 11.2 21.1 8.2 18.2 13.1 25.2 24.4 34.9 14.7 12.7 39.4 22.4 64 25.4 5.1.6 10.5 1.5 12 2.1 3.7 1.4 6.2 6.5 7.7 15.6 5.2 31.1 32.3 42.6 63.7 27.1 4.5-2.2 8.7-4.7 9.3-5.4 1-1.1-3.8-3-26.9-10.5-21.9-7.1-28.7-9.7-31-11.9-3.8-3.5-4-7.4-.8-12.2 5.4-8 14.2-8 23.7 0 6 5.1 12.8 8.4 22.5 11 4.4 1.2 11.4 3.3 15.5 4.7 15.6 5 23 5 32.8.1 5-2.4 17.2-13.2 17.2-15.2 0-1.5-6.9-3-22.5-5.1-14.8-1.9-22.2-3.7-29.4-7.3l-5.5-2.8 10.2-5.2c27.9-14.4 56.1-37.6 96-78.9 22.6-23.6 42.1-41.9 60.1-56.6 6.9-5.7 15.3-13.2 18.5-16.7 16-17.3 24.6-37.9 24.6-59.2 0-16.2-3.3-28.1-14-50.7-8.8-18.6-13.6-31.6-18.5-50.5-10.7-40.8-15.6-84.1-11.6-102 1.8-8.5 7.3-19.3 12.7-25.4 9.6-10.7 29.2-21.2 54.6-29.2 10.8-3.4 13.1-4.5 15.8-7.5"/></svg>